<svg width="169" height="32" viewBox="0 0 169 32" fill="none" xmlns="http://www.w3.org/2000/svg">
<path d="M90.2782 19.2107H74.4903C74.1539 19.2107 73.8838 18.9407 73.8838 18.6044V14.493C73.8838 14.1567 74.1539 13.8867 74.4903 13.8867H90.2782C90.6146 13.8867 90.8847 14.1567 90.8847 14.493V18.6044C90.8847 18.9407 90.6146 19.2107 90.2782 19.2107Z" fill="#421A9E"/>
<path d="M96.348 29.6402H74.4903C74.1539 29.6402 73.8838 29.3703 73.8838 29.034V24.6336C73.8838 24.2973 74.1586 24.0273 74.4903 24.0273H96.348C96.6844 24.0273 96.9545 24.2973 96.9545 24.6336V29.034C96.9545 29.3703 96.6844 29.6402 96.348 29.6402Z" fill="#421A9E"/>
<path d="M54.2201 30.8379C54.0732 30.8379 53.9263 30.8379 53.7747 30.8284C49.5576 30.6579 45.9044 27.8443 44.644 23.8135L42.7724 17.3811C42.147 15.3728 40.4459 14.6576 39.0623 14.6576C37.6788 14.6576 35.9825 15.3728 35.3523 17.3811L33.4807 23.8135C32.1871 27.9438 28.5576 30.7005 24.2315 30.8331C19.9008 30.9752 16.1101 28.4412 14.5655 24.3961L10.5711 13.9281C9.45286 10.9962 6.63832 9.06362 3.50159 9.06362H0.606499C0.270082 9.06362 0 8.79363 0 8.45733V3.53598C0 3.20441 0.270082 2.92969 0.606499 2.92969H3.50159C9.18278 2.92969 14.2717 6.43479 16.2997 11.7398L20.294 22.653C21.2085 25.0497 23.4023 25.1729 24.042 25.1492C24.6912 25.1303 26.866 24.8745 27.6289 22.4256L29.4294 16.2301C30.7514 11.9956 34.6273 8.96415 39.0623 8.96415C43.5353 8.96415 47.288 11.7209 48.6242 15.9886L50.4958 22.4256C51.2634 24.8745 53.4383 25.1303 54.0874 25.1492C54.7366 25.1634 56.9209 25.045 57.8354 22.653L61.8298 11.7398C63.853 6.43479 68.9466 2.92969 74.6278 2.92969H95.1351C95.4715 2.92969 95.7416 3.20441 95.7416 3.53598V8.19208C95.7416 8.52838 95.4715 8.79837 95.1351 8.79837H74.6231C71.5432 8.79837 68.7855 10.6978 67.691 13.5729L63.5592 24.3913C62.0572 28.3322 58.4135 30.8331 54.2201 30.8331" fill="#421A9E"/>
<path d="M118.902 14.9558C118.561 15.3679 118.457 15.5384 118.457 15.8463C118.457 16.1541 118.594 16.3626 118.869 16.7036L128.767 29.1136C128.966 29.3646 128.786 29.7341 128.469 29.7341H122.887C122.646 29.7341 122.413 29.6251 122.262 29.4356L114.098 19.2424C113.207 18.1435 112.724 17.1488 112.724 16.1873C112.724 15.2258 113.24 14.1648 114.164 13.0327L122.162 3.28C122.314 3.09527 122.541 2.98633 122.778 2.98633H128.133C128.459 2.98633 128.635 3.36526 128.426 3.6163L118.902 14.9558ZM106.303 2.98633H110.407C110.743 2.98633 111.013 3.25632 111.013 3.59262V29.1325C111.013 29.4688 110.743 29.7388 110.407 29.7388H106.303C105.967 29.7388 105.697 29.4688 105.697 29.1325V3.59262C105.697 3.25632 105.967 2.98633 106.303 2.98633Z" fill="#29F28A"/>
<path d="M138.599 16.5672C136.164 16.5672 134.378 18.386 134.378 20.8207C134.378 23.2553 136.164 25.0741 138.599 25.0741C141.035 25.0741 142.821 23.2553 142.821 20.8207C142.821 18.386 141.073 16.5672 138.599 16.5672ZM129.166 20.8207C129.166 15.473 133.217 11.5605 138.737 11.5605C144.257 11.5605 148.033 15.3688 148.033 20.4796V29.1334C148.033 29.4697 147.763 29.7397 147.427 29.7397H143.906C143.57 29.7397 143.3 29.465 143.3 29.1334V27.1014C141.997 29.195 140.111 30.0855 137.912 30.0855C133.008 30.0855 129.166 26.173 129.166 20.8254" fill="#29F28A"/>
<path d="M157.813 3.59262V29.1325C157.813 29.4688 157.543 29.7388 157.206 29.7388H153.273C152.937 29.7388 152.667 29.4688 152.667 29.1325V3.59262C152.667 3.25632 152.937 2.98633 153.273 2.98633H157.206C157.543 2.98633 157.813 3.25632 157.813 3.59262Z" fill="#29F28A"/>
<path d="M168.176 3.59262V29.1325C168.176 29.4688 167.905 29.7388 167.569 29.7388H163.636C163.3 29.7388 163.03 29.4688 163.03 29.1325V3.59262C163.03 3.25632 163.3 2.98633 163.636 2.98633H167.569C167.905 2.98633 168.176 3.25632 168.176 3.59262Z" fill="#29F28A"/>
</svg>
